<svg id="f63c7619-b330-4586-a945-52dbc724a160" data-name="Слой 1" xmlns="http://www.w3.org/2000/svg" viewBox="0 0 221.5 233.5"><defs><style>.\37 2f089e8-a41c-42da-81b2-7d500d3ec306{fill:#1c6bad;}</style></defs><title>Icon-2</title><path class="72f089e8-a41c-42da-81b2-7d500d3ec306" d="M85.42,233.5a3,3,0,0,1-.87-.13l-82.42-25A3,3,0,0,1,0,205.5V165.67a3,3,0,0,1,3.87-2.87l82.42,25a3,3,0,0,1,2.13,2.87V230.5a3,3,0,0,1-3,3ZM6,203.28l76.42,23.18V192.89L6,169.71Z"/><path class="72f089e8-a41c-42da-81b2-7d500d3ec306" d="M85.42,233.5a3,3,0,0,1-3-3V190.67a3,3,0,0,1,2.45-2.95l133.08-25a3,3,0,0,1,3.55,2.95V205.5a3,3,0,0,1-2.45,2.95L86,233.45A3,3,0,0,1,85.42,233.5Zm3-40.34v33.73L215.5,203V169.28ZM218.5,205.5h0Z"/><path class="72f089e8-a41c-42da-81b2-7d500d3ec306" d="M3,168.67a3,3,0,0,1-.47-6l43-6.83a3,3,0,1,1,.94,5.93l-43,6.83A3,3,0,0,1,3,168.67Z"/><path class="72f089e8-a41c-42da-81b2-7d500d3ec306" d="M218.5,168.67l-.36,0-57-6.83a3,3,0,1,1,.71-6l57,6.83a3,3,0,0,1-.35,6Z"/><path class="72f089e8-a41c-42da-81b2-7d500d3ec306" d="M108.42,116.58c-29.34,0-79-3.66-79-17.38s49.66-17.37,79-17.37,79,3.66,79,17.38S137.76,116.58,108.42,116.58Zm0-28.75c-19.5,0-38,1.4-52,3.94-16.37,3-20.76,6.48-21,7.47.25.92,4.64,4.44,21,7.4,14,2.54,32.5,3.94,52,3.94s38-1.4,52-3.94c16.17-2.93,20.65-6.39,21-7.44-.34-1-4.82-4.51-21-7.44C146.38,89.23,127.91,87.83,108.42,87.83Zm73,11.41h0Z"/><path class="72f089e8-a41c-42da-81b2-7d500d3ec306" d="M108.42,154.11c-29.34,0-79-3.66-79-17.37V99.21a3,3,0,1,1,6,0v37.53c.24,1,4.63,4.47,21,7.44,14,2.54,32.5,3.94,52,3.94s38-1.4,52-3.94c16.37-3,20.76-6.48,21-7.47V99.21a3,3,0,0,1,6,0v37.53C187.42,150.45,137.76,154.11,108.42,154.11Z"/><path class="72f089e8-a41c-42da-81b2-7d500d3ec306" d="M61.42,174.08a3,3,0,0,1-3-3V148a3,3,0,0,1,6,0v23A3,3,0,0,1,61.42,174.08Z"/><path class="72f089e8-a41c-42da-81b2-7d500d3ec306" d="M147.17,168.67a3,3,0,0,1-3-3V149.11a3,3,0,1,1,6,0v16.55A3,3,0,0,1,147.17,168.67Z"/><path class="72f089e8-a41c-42da-81b2-7d500d3ec306" d="M152,113.83a3,3,0,0,1-.78-.1L64.1,90.48a3,3,0,1,1,1.55-5.8l87.08,23.25a3,3,0,0,1-.77,5.9Z"/><path class="72f089e8-a41c-42da-81b2-7d500d3ec306" d="M64.87,113.83a3,3,0,0,1-.77-5.9l87.08-23.25a3,3,0,1,1,1.55,5.8L65.65,113.73A3,3,0,0,1,64.87,113.83Z"/><path class="72f089e8-a41c-42da-81b2-7d500d3ec306" d="M104.42,71.67a3,3,0,0,0,3-3c0-2.88,1.32-4.24,3.15-6.12,2.16-2.22,4.85-5,4.85-10.3s-2.69-8.08-4.85-10.3c-1.83-1.88-3.15-3.23-3.15-6.12s1.32-4.24,3.15-6.11c2.16-2.22,4.85-5,4.85-10.3s-2.69-8.08-4.85-10.3c-1.83-1.88-3.15-3.23-3.15-6.11a3,3,0,0,0-6,0c0,5.32,2.69,8.08,4.85,10.3,1.83,1.88,3.15,3.23,3.15,6.11s-1.32,4.24-3.15,6.11c-2.16,2.22-4.85,5-4.85,10.3s2.69,8.08,4.85,10.3c1.83,1.88,3.15,3.23,3.15,6.12s-1.32,4.24-3.15,6.12c-2.16,2.22-4.85,5-4.85,10.3A3,3,0,0,0,104.42,71.67Z"/><path class="72f089e8-a41c-42da-81b2-7d500d3ec306" d="M57,76.67a3,3,0,0,0,3-3c0-2.57.92-3.69,2.32-5.39C64,66.28,66,63.8,66,59.08s-2-7.21-3.68-9.2C60.92,48.18,60,47.06,60,44.49s.92-3.69,2.32-5.38C64,37.12,66,34.64,66,29.92s-2-7.2-3.68-9.2C60.92,19,60,17.9,60,15.33a3,3,0,0,0-6,0c0,4.72,2,7.2,3.68,9.2,1.39,1.7,2.32,2.82,2.32,5.38s-.92,3.69-2.32,5.38C56,37.29,54,39.77,54,44.49s2,7.2,3.68,9.2c1.4,1.7,2.32,2.82,2.32,5.39s-.92,3.69-2.32,5.39C56,66.46,54,68.94,54,73.67A3,3,0,0,0,57,76.67Z"/><path class="72f089e8-a41c-42da-81b2-7d500d3ec306" d="M153.83,76.67a3,3,0,0,0,3-3c0-2.57.92-3.69,2.32-5.39,1.64-2,3.68-4.48,3.68-9.2s-2-7.21-3.68-9.2c-1.39-1.7-2.32-2.82-2.32-5.39s.92-3.69,2.32-5.38c1.64-2,3.68-4.47,3.68-9.19s-2-7.2-3.68-9.2c-1.39-1.7-2.32-2.81-2.32-5.38a3,3,0,0,0-6,0c0,4.72,2,7.2,3.68,9.2,1.39,1.7,2.32,2.82,2.32,5.38s-.92,3.69-2.32,5.38c-1.64,2-3.68,4.47-3.68,9.2s2,7.2,3.68,9.2c1.4,1.7,2.32,2.82,2.32,5.39s-.92,3.69-2.32,5.39c-1.64,2-3.68,4.48-3.68,9.2A3,3,0,0,0,153.83,76.67Z"/></svg>