<svg id="d359add5-cf5b-46c3-86c9-5a0b45af170e" data-name="Слой 1" xmlns="http://www.w3.org/2000/svg" viewBox="0 0 230.8 237.15"><defs><style>.\34 ceba606-dc68-49b2-94ee-b3225a867d63{fill:#1c6bad;}</style></defs><title>Icon-3</title><path class="4ceba606-dc68-49b2-94ee-b3225a867d63" d="M99.86,94.78a3,3,0,0,1-3-3v-76H61.14v72a3,3,0,0,1-6,0v-75a3,3,0,0,1,3-3H99.86a3,3,0,0,1,3,3v79A3,3,0,0,1,99.86,94.78Z"/><path class="4ceba606-dc68-49b2-94ee-b3225a867d63" d="M113.27,200.16a3,3,0,0,1,0-6A61,61,0,0,0,127,192.52V6H102.86V91.78a3,3,0,0,1-6,0V3a3,3,0,0,1,3-3H130a3,3,0,0,1,3,3V194.83a3,3,0,0,1-2.1,2.86A64.93,64.93,0,0,1,113.27,200.16Z"/><path class="4ceba606-dc68-49b2-94ee-b3225a867d63" d="M41,105.21a155.09,155.09,0,0,1-27.43-2.16C4.19,101.28,0,98.8,0,95s4.19-6.25,13.57-8A155,155,0,0,1,41,84.83,155,155,0,0,1,68.43,87C77.81,88.77,82,91.24,82,95s-4.19,6.25-13.57,8A155.09,155.09,0,0,1,41,105.21ZM7,95c3.82,1.75,15.43,4.19,34,4.19S71.16,96.77,75,95c-3.82-1.75-15.43-4.19-34-4.19S10.84,93.27,7,95Zm69.21.79h0Z"/><path class="4ceba606-dc68-49b2-94ee-b3225a867d63" d="M96.13,101.26C82.77,101.26,76,99.16,76,95s6.77-6.24,20.13-6.24,20.14,2.1,20.14,6.24S109.5,101.26,96.13,101.26ZM111,96.63h0ZM89.77,95c1.85.15,4,.24,6.36.24s4.51-.09,6.36-.24c-1.85-.15-4-.24-6.36-.24S91.63,94.87,89.77,95Z"/><path class="4ceba606-dc68-49b2-94ee-b3225a867d63" d="M102.81,218.13a3,3,0,0,1-.24-6c4.79-.38,7.19-1.07,8.06-1.44a3,3,0,0,1,5.63,1.45c0,3.45-4,5.23-13.21,6Zm7.46-6h0Z"/><path class="4ceba606-dc68-49b2-94ee-b3225a867d63" d="M41,222a155.09,155.09,0,0,1-27.43-2.16C4.19,218,0,215.57,0,211.79a3,3,0,0,1,5.93-.63C8,212.88,20.07,216,41,216c4.83,0,9.52-.17,14-.51a3,3,0,0,1,.46,6C50.83,221.8,46,222,41,222ZM6,211.79H6Z"/><path class="4ceba606-dc68-49b2-94ee-b3225a867d63" d="M3,214.79a3,3,0,0,1-3-3V95a3,3,0,0,1,6,0V211.79A3,3,0,0,1,3,214.79Z"/><path class="4ceba606-dc68-49b2-94ee-b3225a867d63" d="M79,181.91a3,3,0,0,1-3-3V95a3,3,0,1,1,6,0v83.89A3,3,0,0,1,79,181.91Z"/><path class="4ceba606-dc68-49b2-94ee-b3225a867d63" d="M113.27,215.14a3,3,0,0,1-3-3V95a3,3,0,0,1,6,0V212.14A3,3,0,0,1,113.27,215.14Z"/><path class="4ceba606-dc68-49b2-94ee-b3225a867d63" d="M166.82,116.23c-13.36,0-20.14-2.1-20.14-6.24s6.77-6.24,20.14-6.24S187,105.84,187,110,180.18,116.23,166.82,116.23ZM160.45,110c1.85.15,4,.24,6.36.24s4.51-.09,6.36-.24c-1.85-.15-4-.24-6.36-.24S162.31,109.84,160.45,110Z"/><path class="4ceba606-dc68-49b2-94ee-b3225a867d63" d="M166.82,189.35c-13.36,0-20.14-2.1-20.14-6.24a3,3,0,0,1,5.63-1.44c1.52.67,6.64,1.68,14.5,1.68,1.69,0,3.36,0,5-.14a3,3,0,1,1,.36,6C170.41,189.29,168.63,189.35,166.82,189.35Zm-14.14-6.24h0Z"/><path class="4ceba606-dc68-49b2-94ee-b3225a867d63" d="M149.68,186.1a3,3,0,0,1-3-3V110a3,3,0,0,1,6,0V183.1A3,3,0,0,1,149.68,186.1Z"/><path class="4ceba606-dc68-49b2-94ee-b3225a867d63" d="M184,152.29a3,3,0,0,1-3-3V110a3,3,0,1,1,6,0v39.31A3,3,0,0,1,184,152.29Z"/><path class="4ceba606-dc68-49b2-94ee-b3225a867d63" d="M55.18,231.74a3,3,0,0,1-3-3V184.31a3,3,0,0,1,6,0v44.43A3,3,0,0,1,55.18,231.74Z"/><path class="4ceba606-dc68-49b2-94ee-b3225a867d63" d="M102.82,231.74a3,3,0,0,1-3-3V184.31a3,3,0,1,1,6,0v44.43A3,3,0,0,1,102.82,231.74Z"/><path class="4ceba606-dc68-49b2-94ee-b3225a867d63" d="M79,192.72c-6.29,0-26.82-.61-26.82-8.41s20.53-8.41,26.82-8.41,26.82.61,26.82,8.41S85.29,192.72,79,192.72Zm-19.33-8.41c3.07,1.11,9.72,2.41,19.33,2.41s16.26-1.3,19.33-2.41c-3.07-1.11-9.72-2.41-19.33-2.41S62.74,183.2,59.67,184.31Zm40.43.92h0Z"/><path class="4ceba606-dc68-49b2-94ee-b3225a867d63" d="M79,237.15c-6.29,0-26.82-.61-26.82-8.41a3,3,0,0,1,5.9-.76c1.6,1.16,9,3.16,20.91,3.16s19.32-2,20.91-3.16a3,3,0,0,1,5.9.76C105.82,236.54,85.29,237.15,79,237.15Z"/><path class="4ceba606-dc68-49b2-94ee-b3225a867d63" d="M171.95,209.59a3,3,0,0,1-3-3V154.5a3,3,0,0,1,6,0v52.09A3,3,0,0,1,171.95,209.59Z"/><path class="4ceba606-dc68-49b2-94ee-b3225a867d63" d="M227.8,209.59a3,3,0,0,1-3-3V154.5a3,3,0,0,1,6,0v52.09A3,3,0,0,1,227.8,209.59Z"/><path class="4ceba606-dc68-49b2-94ee-b3225a867d63" d="M199.87,163.84c-5.16,0-30.93-.45-30.93-9.34s25.76-9.34,30.93-9.34,30.93.45,30.93,9.34S205,163.84,199.87,163.84Zm-24-9.34c3,1.43,11.25,3.34,24,3.34s21-1.91,24-3.34c-3-1.43-11.25-3.34-24-3.34S178.83,153.07,175.85,154.5Zm49.16.73h0Z"/><path class="4ceba606-dc68-49b2-94ee-b3225a867d63" d="M199.87,215.93c-5.16,0-30.93-.45-30.93-9.34a3,3,0,0,1,5.94-.58c1.63,1.41,10.35,3.92,25,3.92s23.35-2.51,25-3.92a3,3,0,0,1,5.94.58C230.8,215.48,205,215.93,199.87,215.93Zm24.93-9.34h0Zm-49.85,0h0Z"/></svg>