<svg id="be1a782e-a701-4226-b29f-ce25da89e353" data-name="Слой 1" xmlns="http://www.w3.org/2000/svg" viewBox="0 0 239.34 234"><defs><style>.\35 4b6f044-b18c-4389-9633-6d34189d8f35{fill:#1c6bad;}</style></defs><title>Icon-1</title><path class="54b6f044-b18c-4389-9633-6d34189d8f35" d="M140,234a3,3,0,0,1-2.17-.93l-43-45A3,3,0,0,1,94,186V149.5a3,3,0,0,1,6,0v35.3l37,38.72v-213L100,49.2v37a3,3,0,0,1-6,0V48a3,3,0,0,1,.83-2.07l43-45A3,3,0,0,1,143,3V231a3,3,0,0,1-3,3Z" transform="translate(0 0)"/><path class="54b6f044-b18c-4389-9633-6d34189d8f35" d="M197.34,63.17c-9.74,0-16.24-4.27-22-8-5.41-3.55-10.08-6.62-17-6.62a3,3,0,0,1,0-6c8.74,0,14.62,3.87,20.31,7.61,5.53,3.63,10.74,7.06,18.69,7.06,7.47,0,11.7-3,16.59-6.48,5.4-3.84,11.52-8.19,22.41-8.19a3,3,0,0,1,0,6c-9,0-13.81,3.44-18.94,7.08S206.72,63.17,197.34,63.17Z" transform="translate(0 0)"/><path class="54b6f044-b18c-4389-9633-6d34189d8f35" d="M197.34,105.95c-9.74,0-16.24-4.27-22-8-5.41-3.55-10.08-6.62-17-6.62a3,3,0,0,1,0-6c8.74,0,14.62,3.87,20.31,7.61,5.53,3.63,10.74,7.06,18.69,7.06,7.47,0,11.7-3,16.59-6.48,5.4-3.84,11.52-8.19,22.41-8.19a3,3,0,0,1,0,6c-9,0-13.81,3.44-18.94,7.08S206.72,105.95,197.34,105.95Z" transform="translate(0 0)"/><path class="54b6f044-b18c-4389-9633-6d34189d8f35" d="M197.34,148.72c-9.74,0-16.24-4.27-22-8-5.41-3.55-10.08-6.62-17-6.62a3,3,0,0,1,0-6c8.74,0,14.62,3.87,20.31,7.61,5.53,3.63,10.74,7.06,18.69,7.06,7.47,0,11.7-3,16.59-6.48,5.4-3.84,11.52-8.19,22.41-8.19a3,3,0,0,1,0,6c-9,0-13.81,3.44-18.94,7.08S206.72,148.72,197.34,148.72Z" transform="translate(0 0)"/><path class="54b6f044-b18c-4389-9633-6d34189d8f35" d="M197.34,191.5c-9.74,0-16.24-4.27-22-8-5.41-3.55-10.08-6.62-17-6.62a3,3,0,0,1,0-6c8.74,0,14.62,3.87,20.31,7.61,5.53,3.63,10.74,7.06,18.69,7.06,7.47,0,11.7-3,16.59-6.48,5.4-3.84,11.52-8.19,22.41-8.19a3,3,0,0,1,0,6c-9,0-13.81,3.44-18.94,7.08S206.72,191.5,197.34,191.5Z" transform="translate(0 0)"/><path class="54b6f044-b18c-4389-9633-6d34189d8f35" d="M57.09,63.17A16.42,16.42,0,1,1,73.51,46.75,16.44,16.44,0,0,1,57.09,63.17Zm0-26.84A10.42,10.42,0,1,0,67.51,46.75,10.43,10.43,0,0,0,57.09,36.33Z" transform="translate(0 0)"/><path class="54b6f044-b18c-4389-9633-6d34189d8f35" d="M16.42,115.59A16.42,16.42,0,1,1,32.84,99.17,16.44,16.44,0,0,1,16.42,115.59Zm0-26.84A10.42,10.42,0,1,0,26.84,99.17,10.43,10.43,0,0,0,16.42,88.75Z" transform="translate(0 0)"/><path class="54b6f044-b18c-4389-9633-6d34189d8f35" d="M47.41,198.55a16.42,16.42,0,1,1,16.42-16.42A16.44,16.44,0,0,1,47.41,198.55Zm0-26.84a10.42,10.42,0,1,0,10.42,10.42A10.43,10.43,0,0,0,47.41,171.71Z" transform="translate(0 0)"/><path class="54b6f044-b18c-4389-9633-6d34189d8f35" d="M47.41,146.34a9.71,9.71,0,1,1,9.71-9.71A9.72,9.72,0,0,1,47.41,146.34Zm0-13.42a3.71,3.71,0,1,0,3.71,3.71A3.71,3.71,0,0,0,47.41,132.92Z" transform="translate(0 0)"/><path class="54b6f044-b18c-4389-9633-6d34189d8f35" d="M16,219.75A9.71,9.71,0,1,1,25.71,210,9.72,9.72,0,0,1,16,219.75Zm0-13.42A3.71,3.71,0,1,0,19.71,210,3.71,3.71,0,0,0,16,206.34Z" transform="translate(0 0)"/><path class="54b6f044-b18c-4389-9633-6d34189d8f35" d="M69.16,105.35a9.71,9.71,0,1,1,9.71-9.71A9.72,9.72,0,0,1,69.16,105.35Zm0-13.42a3.71,3.71,0,1,0,3.71,3.71A3.71,3.71,0,0,0,69.16,91.93Z" transform="translate(0 0)"/><circle class="54b6f044-b18c-4389-9633-6d34189d8f35" cx="77.59" cy="156.67" r="5.08"/><circle class="54b6f044-b18c-4389-9633-6d34189d8f35" cx="103.75" cy="130.33" r="5.08"/><circle class="54b6f044-b18c-4389-9633-6d34189d8f35" cx="80.5" cy="130.33" r="2.92"/><circle class="54b6f044-b18c-4389-9633-6d34189d8f35" cx="117.92" cy="150" r="2.92"/><circle class="54b6f044-b18c-4389-9633-6d34189d8f35" cx="97.13" cy="104.33" r="2.92"/><circle class="54b6f044-b18c-4389-9633-6d34189d8f35" cx="115" cy="82.71" r="2.92"/><circle class="54b6f044-b18c-4389-9633-6d34189d8f35" cx="116.23" cy="62.65" r="1.69"/><circle class="54b6f044-b18c-4389-9633-6d34189d8f35" cx="126.5" cy="127.42" r="1.69"/><circle class="54b6f044-b18c-4389-9633-6d34189d8f35" cx="116.23" cy="105.75" r="1.69"/><circle class="54b6f044-b18c-4389-9633-6d34189d8f35" cx="111.62" cy="169.91" r="1.69"/><circle class="54b6f044-b18c-4389-9633-6d34189d8f35" cx="43.75" cy="74.96" r="2.92"/><circle class="54b6f044-b18c-4389-9633-6d34189d8f35" cx="8.5" cy="44.09" r="2.92"/><circle class="54b6f044-b18c-4389-9633-6d34189d8f35" cx="8.75" cy="168.25" r="2.92"/><circle class="54b6f044-b18c-4389-9633-6d34189d8f35" cx="69.41" cy="208.01" r="2.92"/></svg>