<svg 
 xmlns="http://www.w3.org/2000/svg"
 xmlns:xlink="http://www.w3.org/1999/xlink"
 width="32px" height="32px">
<path fill-rule="evenodd"  fill="rgb(28, 107, 173)"
 d="M-0.000,-0.000 L-0.000,32.000 L32.000,32.000 L32.000,-0.000 L-0.000,-0.000 ZM21.169,8.806 L18.668,8.806 C18.173,8.806 17.673,9.318 17.673,9.699 L17.673,12.250 L21.165,12.250 C21.024,14.205 20.735,15.994 20.735,15.994 L17.655,15.994 L17.655,27.077 L13.065,27.077 L13.065,15.993 L10.830,15.993 L10.830,12.263 L13.065,12.263 L13.065,9.214 C13.065,8.656 12.952,4.923 17.768,4.923 L21.169,4.923 L21.169,8.806 L21.169,8.806 Z"/>
</svg>