<?xml version="1.0" encoding="utf-8"?>
<!-- Generator: Adobe Illustrator 21.1.0, SVG Export Plug-In . SVG Version: 6.00 Build 0)  -->
<svg version="1.1" id="_x36_c528baf-656b-4adc-9f66-70eae15f40fa"
	 xmlns="http://www.w3.org/2000/svg" xmlns:xlink="http://www.w3.org/1999/xlink" x="0px" y="0px" viewBox="0 0 509.1 208.1"
	 style="enable-background:new 0 0 509.1 208.1;" xml:space="preserve">
<style type="text/css">
	.st0{fill-rule:evenodd;clip-rule:evenodd;fill:#FFFFFF;}
	.st1{fill-rule:evenodd;clip-rule:evenodd;fill:#00A6EA;}
	.st2{fill-rule:evenodd;clip-rule:evenodd;fill:url(#SVGID_1_);}
	.st3{fill-rule:evenodd;clip-rule:evenodd;fill:url(#SVGID_2_);}
	.st4{fill-rule:evenodd;clip-rule:evenodd;fill:url(#SVGID_3_);}
	.st5{opacity:0.5;fill-rule:evenodd;clip-rule:evenodd;fill:#FFFFFF;}
	.st6{fill-rule:evenodd;clip-rule:evenodd;fill:url(#SVGID_4_);}
</style>
<title>logo_SVG</title>
<g>
	<path class="st0" d="M257.3,115.5c-8.3,0-13.6-7.3-13.6-17c0-9.9,5.3-17,13.6-17V115.5z M267.9,115.5V81.6c8.3,0,13.6,7,13.6,17
		C281.5,108.3,276.2,115.5,267.9,115.5z M257.3,139.4h10.6v-16.9c13.5,0,24.2-8.5,24.2-24.1s-10.7-24.1-24.2-24.1v-4.1h-10.6v4.1
		c-13.5,0-24.2,8.5-24.2,24.1s10.7,24.1,24.2,24.1V139.4z"/>
	<polygon class="st0" points="298.2,122.5 308.8,122.5 324.2,99.2 328.1,92.7 328,99.2 328,122.5 338.6,122.5 338.6,78.1 328,78.1 
		312.6,101.6 308.6,108.1 308.8,101.6 308.8,78.1 298.2,78.1 	"/>
	<path class="st0" d="M348.2,123.8c5.9-1.4,10.2-4.2,12.8-8.6c2.7-5.1,4.4-14.4,5.5-29.7h9.8v37h10.6V78.3h-29.2
		c-0.5,14.4-2,26.3-4,30.2c-1.8,3.4-5.5,5.3-8.4,6.4L348.2,123.8z"/>
	<path class="st0" d="M410.4,100.2c4.9,0,8.7,2,8.7,7.5c0,4.8-2.9,7.3-7.3,7.3h-6.3v-14.8H410.4z M394.9,122.2h19.5
		c8.8,0,15.3-5.7,15.3-14.4c0-10.2-7.6-14.9-18.7-14.9h-5.5V78.1h-10.6V122.2z"/>
	<polygon class="st0" points="441.4,122.5 452,122.5 452,85.6 465.9,85.6 465.9,78.4 427.7,78.4 427.7,85.6 441.4,85.6 	"/>
	<path class="st0" d="M487.4,115c-2.5,0-4.3-0.6-5.1-0.7V87.2c2.2-1,3.6-2.3,7.4-1.9c5.9,0.6,8.9,6.3,8.9,14.1
		C498.5,108.1,496,115,487.4,115z M471.6,139.3h10.6v-16.7c1.8-0.5,2.6-0.3,5.3-0.3c12.1,0,21.6-5.4,21.6-23.2
		c0-14.8-8.8-21-18.8-21c-5.4,0-8,0.3-8,0.3h-10.6V139.3z"/>
	<polygon class="st1" points="287.5,156.4 290.7,156.4 290.7,139.4 297,139.4 297,137.7 281.1,137.7 281.1,139.4 287.5,139.4 	"/>
	<path class="st1" d="M310,154.5c-4,0-5.9-3.5-5.9-7.6c0-4.2,2-7.5,6.1-7.5c3.9,0,6,3.3,6,7.5C316.2,151.2,314.3,154.5,310,154.5z
		 M309.9,156.2c5.6,0,9.5-3.3,9.5-9.2c0-5.7-3.4-9.2-9.1-9.2c-5.4,0-9.4,3.1-9.4,9.2C300.9,152.8,304.5,156.2,309.9,156.2z"/>
	<path class="st1" d="M327,145.1v-5.8h2.3c2.6,0,4.1,0.7,4.1,2.9c0,1.9-1.2,2.9-3.5,2.9H327z M327,154.5v-7.7h2.8
		c3.5,0,5.5,1.1,5.5,3.9c0,3.1-2,3.8-4.9,3.8H327z M323.8,156.2h7.1c5.6,0,7.6-1.7,7.6-5.6c0-3.3-2.2-4.6-4.2-4.9v-0.1
		c1.1-0.4,2.3-1.8,2.3-3.7c0-2.9-2.2-4.3-6.8-4.3h-6V156.2z"/>
	<path class="st1" d="M344.9,147l2.8-7.9l2.5,7.9H344.9z M338.9,156.4h2.8l2.4-7.7h6.7l2.1,7.7h2.9l-6.3-18.9h-3.5L338.9,156.4z"/>
	<path class="st1" d="M360.2,156.4h3.2v-17h2.7c2.5,0,3.7,1.7,3.7,4.8c0,3.2-1.6,4.8-4.2,4.8h-1.2v1.7h1.1c4.9,0,7.6-2.4,7.6-6.6
		c0-4.8-2.8-6.4-6.4-6.4h-6.4V156.4z"/>
	<path class="st1" d="M377.4,156.4h3.2v-18.9h-3.2V156.4z M388.7,156.4h3.7l-8.3-10.1l7.8-8.8h-3.7l-7.3,8.6v0.3L388.7,156.4z"/>
	<path class="st1" d="M405.6,154.5c-4,0-5.9-3.5-5.9-7.6c0-4.2,2-7.5,6.1-7.5c3.9,0,6,3.3,6,7.5
		C411.8,151.2,409.9,154.5,405.6,154.5z M405.6,156.2c5.6,0,9.5-3.3,9.5-9.2c0-5.7-3.4-9.2-9.1-9.2c-5.4,0-9.4,3.1-9.4,9.2
		C396.5,152.8,400.1,156.2,405.6,156.2z"/>
	<path class="st1" d="M422.7,145.1v-5.8h2.3c2.6,0,4.1,0.7,4.1,2.9c0,1.9-1.2,2.9-3.5,2.9H422.7z M422.7,154.5v-7.7h2.8
		c3.5,0,5.5,1.1,5.5,3.9c0,3.1-2,3.8-4.9,3.8H422.7z M419.5,156.2h7.1c5.6,0,7.6-1.7,7.6-5.6c0-3.3-2.2-4.6-4.2-4.9v-0.1
		c1.1-0.4,2.3-1.8,2.3-3.7c0-2.9-2.2-4.3-6.8-4.3h-6V156.2z"/>
	<path class="st1" d="M445.8,154.5c-4,0-5.9-3.5-5.9-7.6c0-4.2,2-7.5,6.1-7.5c3.9,0,6,3.3,6,7.5C452,151.2,450.1,154.5,445.8,154.5z
		 M445.7,156.2c5.6,0,9.5-3.3,9.5-9.2c0-5.7-3.4-9.2-9.1-9.2c-5.4,0-9.4,3.1-9.4,9.2C436.7,152.8,440.3,156.2,445.7,156.2z"/>
	<linearGradient id="SVGID_1_" gradientUnits="userSpaceOnUse" x1="13.5093" y1="40.5365" x2="65.1643" y2="168.7172">
		<stop  offset="0" style="stop-color:#FFD300"/>
		<stop  offset="1" style="stop-color:#FFA324"/>
	</linearGradient>
	<path class="st2" d="M0,103.3c0,13.7,2.6,26.7,7.3,38.7c12.7,25.4,39.5,53.6,96.6,41.5h0c-43.8,0-79.4-35.9-79.4-80.1
		c0-2,0.1-4.1,0.2-6.1c-1.1-9.8-2.8-46.8,25-83.5C19.9,32.1,0,65.3,0,103.3z"/>
	<linearGradient id="SVGID_2_" gradientUnits="userSpaceOnUse" x1="98.4241" y1="84.96" x2="144.6944" y2="199.7787">
		<stop  offset="0" style="stop-color:#0679CA"/>
		<stop  offset="1" style="stop-color:#0CB0EA"/>
	</linearGradient>
	<path class="st3" d="M51,193.6c15.5,9.2,33.6,14.6,52.8,14.6c23.7,0,45.5-8,63-21.5c17.4-16.8,60.8-67.2,1.6-129.9
		c9.3,13.1,14.8,29.2,14.8,46.5c0,36-23.6,66.5-56,76.6C113.1,187.8,86.4,198.7,51,193.6z"/>
	<linearGradient id="SVGID_3_" gradientUnits="userSpaceOnUse" x1="88.4182" y1="2.51" x2="140.1175" y2="130.8008">
		<stop  offset="0" style="stop-color:#0679CA"/>
		<stop  offset="1" style="stop-color:#0CB0EA"/>
	</linearGradient>
	<path class="st4" d="M207.8,103.5v-0.3c0-48.6-32.8-89.5-77.2-101.4C101.1-3.6,49.6-1.8,30.1,73.8c11.6-29.7,40.3-50.6,73.8-50.6
		c16.7,0,32.1,5.2,44.9,14.1C159.7,42.3,191.4,60.5,207.8,103.5z"/>
	<path class="st5" d="M15.9,103.3c0,49.1,39.4,88.9,88,88.9s88-39.8,88-88.9c0-49.1-39.4-88.9-88-88.9S15.9,54.2,15.9,103.3z
		 M24.5,103.3c0-44.3,35.5-80.1,79.4-80.1c43.8,0,79.4,35.9,79.4,80.1c0,44.3-35.5,80.1-79.4,80.1C60.1,183.4,24.5,147.5,24.5,103.3
		z"/>
	<linearGradient id="SVGID_4_" gradientUnits="userSpaceOnUse" x1="85.8852" y1="58.583" x2="121.8847" y2="147.915">
		<stop  offset="0" style="stop-color:#0679CA"/>
		<stop  offset="1" style="stop-color:#0CB0EA"/>
	</linearGradient>
	<path class="st6" d="M56.3,103.3c0,22.3,15,41.2,35.4,46.6V56.6C71.3,62.1,56.3,80.9,56.3,103.3z M116.1,149.9
		c20.4-5.5,35.4-24.3,35.4-46.6c0-22.4-15-41.2-35.4-46.6V149.9z"/>
</g>
</svg>
