<svg id="6c528baf-656b-4adc-9f66-70eae15f40fa" data-name="‘лой_1" xmlns="http://www.w3.org/2000/svg" xmlns:xlink="http://www.w3.org/1999/xlink" viewBox="0 0 509.09 208.15"><defs><style>.\30 8b04708-98ff-49df-8814-7d9c899904e6,.\32 8c83b5a-efd8-4bf9-9a6d-047e571fb3af{fill:#fff;}.\32 8c83b5a-efd8-4bf9-9a6d-047e571fb3af,.\38 beaeef0-c88b-4dad-b694-b60722f5e147,.b5176adb-bea6-4535-aa6b-136443012eb2,.cae08ee7-c537-46b3-b78f-f3dc4dc7c775,.ce047ab6-5b0f-4abe-9db6-37c80abb96a7,.dafdc158-0d08-4879-9f52-da18f487fb12,.e93b697b-4645-44ed-b7e2-be00cf3de1f5{fill-rule:evenodd;}.ce047ab6-5b0f-4abe-9db6-37c80abb96a7{fill:#00a6ea;}.cae08ee7-c537-46b3-b78f-f3dc4dc7c775{fill:url(#ff4fecc2-10e6-4149-b742-1fc0bbf63e3e);}.\38 beaeef0-c88b-4dad-b694-b60722f5e147{fill:url(#73c03373-5004-480e-9226-7fd48623a90e);}.b5176adb-bea6-4535-aa6b-136443012eb2{fill:url(#45684e22-bb2d-400d-a605-b5ce0ff1da7b);}.\32 8c83b5a-efd8-4bf9-9a6d-047e571fb3af{opacity:0.5;}.dafdc158-0d08-4879-9f52-da18f487fb12{fill:url(#b335cbd6-db09-46f6-86b8-d4aaedef4990);}</style><linearGradient id="ff4fecc2-10e6-4149-b742-1fc0bbf63e3e" x1="13.51" y1="40.54" x2="65.16" y2="168.72" gradientUnits="userSpaceOnUse"><stop offset="0" stop-color="#ffd300"/><stop offset="1" stop-color="#ffa324"/></linearGradient><linearGradient id="73c03373-5004-480e-9226-7fd48623a90e" x1="98.42" y1="84.96" x2="144.69" y2="199.78" gradientUnits="userSpaceOnUse"><stop offset="0" stop-color="#0679ca"/><stop offset="1" stop-color="#0cb0ea"/></linearGradient><linearGradient id="45684e22-bb2d-400d-a605-b5ce0ff1da7b" x1="88.42" y1="2.51" x2="140.12" y2="130.8" xlink:href="#73c03373-5004-480e-9226-7fd48623a90e"/><linearGradient id="b335cbd6-db09-46f6-86b8-d4aaedef4990" x1="85.89" y1="58.58" x2="121.88" y2="147.91" xlink:href="#73c03373-5004-480e-9226-7fd48623a90e"/></defs><title>logo_SVG</title><circle class="08b04708-98ff-49df-8814-7d9c899904e6" cx="104.74" cy="103.24" r="88.88"/><path class="e93b697b-4645-44ed-b7e2-be00cf3de1f5" d="M257.3,115.53c-8.3,0-13.58-7.27-13.58-17,0-9.95,5.28-17,13.58-17Zm10.58,0V81.6c8.3,0,13.58,7,13.58,17C281.46,108.26,276.18,115.53,267.88,115.53ZM257.3,139.37h10.58V122.52c13.51,0,24.2-8.49,24.2-24.07s-10.69-24.07-24.2-24.07V70.29H257.3v4.09c-13.51,0-24.2,8.49-24.2,24.07s10.69,24.07,24.2,24.07Z"/><polygon class="e93b697b-4645-44ed-b7e2-be00cf3de1f5" points="298.22 122.52 308.8 122.52 324.2 99.16 328.14 92.65 327.97 99.16 327.97 122.52 338.55 122.52 338.55 78.09 327.97 78.09 312.57 101.61 308.55 108.11 308.8 101.61 308.8 78.09 298.22 78.09 298.22 122.52"/><path class="e93b697b-4645-44ed-b7e2-be00cf3de1f5" d="M348.15,123.76c5.93-1.42,10.24-4.25,12.82-8.55,2.74-5.07,4.36-14.39,5.55-29.67h9.81v37h10.58V78.32H357.68c-.46,14.43-2,26.32-4,30.15-1.8,3.41-5.47,5.32-8.36,6.39Z"/><path class="e93b697b-4645-44ed-b7e2-be00cf3de1f5" d="M410.43,100.19c4.94,0,8.67,2,8.67,7.52,0,4.82-2.85,7.33-7.33,7.33h-6.26V100.19Zm-15.5,22.06h19.48c8.84,0,15.32-5.72,15.32-14.37,0-10.2-7.6-14.9-18.71-14.9h-5.51V78.09H394.93Z"/><polygon class="e93b697b-4645-44ed-b7e2-be00cf3de1f5" points="441.44 122.52 452.02 122.52 452.02 85.57 465.85 85.57 465.85 78.36 427.68 78.36 427.68 85.57 441.44 85.57 441.44 122.52"/><path class="e93b697b-4645-44ed-b7e2-be00cf3de1f5" d="M487.35,115a27.19,27.19,0,0,1-5.15-.67V87.18c2.24-1,3.56-2.26,7.38-1.89,5.93.57,8.92,6.31,8.92,14.14C498.51,108.15,496,115,487.35,115Zm-15.73,24.26h10.58V122.52c1.76-.52,2.56-.31,5.3-.31,12.11,0,21.58-5.39,21.58-23.19,0-14.79-8.8-21-18.84-21-5.38,0-8,.27-8,.27H471.63Z"/><polygon class="ce047ab6-5b0f-4abe-9db6-37c80abb96a7" points="287.47 156.38 290.68 156.38 290.68 139.37 297.02 139.37 297.02 137.71 281.14 137.71 281.14 139.37 287.47 139.37 287.47 156.38"/><path class="ce047ab6-5b0f-4abe-9db6-37c80abb96a7" d="M310,154.49c-4,0-5.91-3.52-5.91-7.63s2-7.48,6.08-7.48c3.94,0,6,3.25,6,7.52S314.27,154.49,310,154.49Zm-.08,1.66c5.61,0,9.47-3.25,9.47-9.22,0-5.68-3.44-9.24-9.09-9.24-5.36,0-9.43,3.14-9.43,9.18S304.46,156.15,309.91,156.15Z"/><path class="ce047ab6-5b0f-4abe-9db6-37c80abb96a7" d="M327,145.13v-5.8h2.3c2.56,0,4.06.71,4.06,2.93,0,1.93-1.17,2.87-3.48,2.87Zm0,9.36v-7.67h2.81c3.54,0,5.45,1.07,5.45,3.88,0,3.08-2,3.79-4.86,3.79Zm-3.21,1.68h7.06c5.57,0,7.63-1.66,7.63-5.57a4.63,4.63,0,0,0-4.19-4.92v-.06a4,4,0,0,0,2.28-3.69c0-2.87-2.24-4.29-6.79-4.29h-6Z"/><path class="ce047ab6-5b0f-4abe-9db6-37c80abb96a7" d="M344.94,147l2.75-7.88,2.49,7.88Zm-6,9.34h2.79l2.43-7.65h6.72l2.14,7.65h2.91l-6.33-18.88h-3.5Z"/><path class="ce047ab6-5b0f-4abe-9db6-37c80abb96a7" d="M360.17,156.38h3.21v-17h2.7c2.54,0,3.65,1.66,3.65,4.82s-1.59,4.78-4.23,4.78H364.3v1.68h1.05c4.86,0,7.6-2.37,7.6-6.6,0-4.76-2.75-6.37-6.35-6.37h-6.43Z"/><path class="ce047ab6-5b0f-4abe-9db6-37c80abb96a7" d="M377.39,156.38h3.21v-18.9h-3.21Zm11.34,0h3.75l-8.3-10.12,7.79-8.78h-3.67L381,146.13v.29Z"/><path class="ce047ab6-5b0f-4abe-9db6-37c80abb96a7" d="M405.64,154.49c-4,0-5.91-3.52-5.91-7.63s2-7.48,6.08-7.48c3.94,0,6,3.25,6,7.52S409.93,154.49,405.64,154.49Zm-.08,1.66c5.61,0,9.47-3.25,9.47-9.22,0-5.68-3.44-9.24-9.09-9.24-5.36,0-9.43,3.14-9.43,9.18S400.12,156.15,405.57,156.15Z"/><path class="ce047ab6-5b0f-4abe-9db6-37c80abb96a7" d="M422.69,145.13v-5.8H425c2.56,0,4.06.71,4.06,2.93,0,1.93-1.17,2.87-3.48,2.87Zm0,9.36v-7.67h2.81c3.54,0,5.45,1.07,5.45,3.88,0,3.08-2,3.79-4.86,3.79Zm-3.21,1.68h7.06c5.57,0,7.63-1.66,7.63-5.57a4.63,4.63,0,0,0-4.19-4.92v-.06a4,4,0,0,0,2.28-3.69c0-2.87-2.24-4.29-6.79-4.29h-6Z"/><path class="ce047ab6-5b0f-4abe-9db6-37c80abb96a7" d="M445.82,154.49c-4,0-5.91-3.52-5.91-7.63s2-7.48,6.08-7.48c3.94,0,6,3.25,6,7.52S450.11,154.49,445.82,154.49Zm-.08,1.66c5.61,0,9.47-3.25,9.47-9.22,0-5.68-3.44-9.24-9.09-9.24-5.36,0-9.43,3.14-9.43,9.18S440.29,156.15,445.74,156.15Z"/><path class="cae08ee7-c537-46b3-b78f-f3dc4dc7c775" d="M0,103.25a105.36,105.36,0,0,0,7.29,38.66C20,167.34,46.78,195.52,103.9,183.37h0c-43.83,0-79.36-35.87-79.36-80.12,0-2,.08-4.07.21-6.08-1.05-9.8-2.81-46.83,25-83.49A105.09,105.09,0,0,0,0,103.25Z"/><path class="8beaeef0-c88b-4dad-b694-b60722f5e147" d="M51,193.59a103.11,103.11,0,0,0,115.82-6.93c17.37-16.84,60.78-67.21,1.63-129.94a80.49,80.49,0,0,1-41.23,123.11C113.14,187.81,86.42,198.66,51,193.59Z"/><path class="b5176adb-bea6-4535-aa6b-136443012eb2" d="M207.77,103.54v-.29c0-48.61-32.75-89.52-77.2-101.4C101.11-3.56,49.65-1.8,30.07,73.75a79.41,79.41,0,0,1,73.81-50.64A78.56,78.56,0,0,1,148.8,37.17C159.71,42.34,191.45,60.51,207.77,103.54Z"/><path class="28c83b5a-efd8-4bf9-9a6d-047e571fb3af" d="M15.86,103.25c0,49.07,39.41,88.87,88,88.87s88-39.79,88-88.87-39.39-88.88-88-88.88S15.86,54.16,15.86,103.25Zm8.67,0c0-44.25,35.53-80.14,79.36-80.14S183.24,59,183.24,103.25s-35.53,80.12-79.36,80.12S24.53,147.5,24.53,103.25Z"/><path class="dafdc158-0d08-4879-9f52-da18f487fb12" d="M56.27,103.25a48.16,48.16,0,0,0,35.39,46.62V56.63A48.13,48.13,0,0,0,56.27,103.25Zm59.84,46.62a48.4,48.4,0,0,0,0-93.25Z"/></svg>