<svg 
                           xmlns="http://www.w3.org/2000/svg"
                           xmlns:xlink="http://www.w3.org/1999/xlink"
                           width="32px" height="32px">
                           <path fill-rule="evenodd"  fill="rgb(14, 181, 244)"
                           d="M-0.004,-0.004 L-0.004,32.004 L32.004,32.004 L32.004,-0.004 L-0.004,-0.004 ZM24.547,11.398 C23.999,11.875 23.396,12.282 23.396,12.282 C23.396,12.282 23.878,14.322 22.530,17.409 C21.183,20.497 18.283,22.892 15.195,23.416 C12.108,23.940 10.480,23.622 9.226,23.266 C7.972,22.911 6.625,21.975 6.625,21.975 C6.625,21.975 8.814,22.031 10.161,21.582 C11.509,21.133 12.295,20.459 12.295,20.459 C12.295,20.459 10.854,20.347 9.712,19.337 C8.571,18.326 8.515,17.578 8.515,17.578 C8.515,17.578 9.113,17.709 9.694,17.709 C10.274,17.709 10.367,17.671 10.367,17.671 C10.367,17.671 8.739,17.222 7.841,15.744 C6.943,14.265 7.167,13.704 7.167,13.704 C7.167,13.704 7.504,13.985 8.103,14.172 C8.702,14.359 9.057,14.228 9.057,14.228 C9.057,14.228 7.523,13.386 7.411,11.627 C7.299,9.868 7.879,9.045 7.879,9.045 C7.879,9.045 8.927,10.953 11.584,12.039 C14.241,13.124 15.850,13.049 15.850,13.049 C15.850,13.049 15.027,10.018 18.170,8.708 C21.314,7.398 22.662,9.718 22.662,9.718 C22.662,9.718 23.649,9.433 24.112,9.194 C24.575,8.956 24.855,8.647 24.855,8.647 C24.855,8.647 24.701,9.293 24.294,9.826 C23.887,10.359 23.312,10.865 23.312,10.865 C23.312,10.865 23.929,10.710 24.477,10.528 C25.024,10.345 25.375,10.205 25.375,10.205 C25.375,10.205 25.094,10.921 24.547,11.398 Z"/>
                       </svg>